<mxfile host="app.diagrams.net" agent="Mozilla/5.0 (Windows NT 10.0; Win64; x64) AppleWebKit/537.36 (KHTML, like Gecko) Chrome/138.0.0.0 Safari/537.36" version="27.1.0">
  <diagram id="C5RBs43oDa-KdzZeNtuy" name="Page-1">
    <mxGraphModel dx="1345" dy="581" grid="1" gridSize="10" guides="1" tooltips="1" connect="1" arrows="1" fold="1" page="1" pageScale="1" pageWidth="827" pageHeight="1169" math="0" shadow="0">
      <root>
        <mxCell id="WIyWlLk6GJQsqaUBKTNV-0" />
        <mxCell id="WIyWlLk6GJQsqaUBKTNV-1" parent="WIyWlLk6GJQsqaUBKTNV-0" />
        <mxCell id="kfvMcEYBfHKcjL1v_Dra-0" value="SingletonTablero" style="swimlane;fontStyle=1;align=center;verticalAlign=top;childLayout=stackLayout;horizontal=1;startSize=26;horizontalStack=0;resizeParent=1;resizeParentMax=0;resizeLast=0;collapsible=1;marginBottom=0;whiteSpace=wrap;html=1;" vertex="1" parent="WIyWlLk6GJQsqaUBKTNV-1">
          <mxGeometry x="60" y="40" width="160" height="86" as="geometry" />
        </mxCell>
        <mxCell id="kfvMcEYBfHKcjL1v_Dra-1" value="- instancia: Tablero" style="text;strokeColor=none;fillColor=none;align=left;verticalAlign=top;spacingLeft=4;spacingRight=4;overflow=hidden;rotatable=0;points=[[0,0.5],[1,0.5]];portConstraint=eastwest;whiteSpace=wrap;html=1;" vertex="1" parent="kfvMcEYBfHKcjL1v_Dra-0">
          <mxGeometry y="26" width="160" height="26" as="geometry" />
        </mxCell>
        <mxCell id="kfvMcEYBfHKcjL1v_Dra-2" value="" style="line;strokeWidth=1;fillColor=none;align=left;verticalAlign=middle;spacingTop=-1;spacingLeft=3;spacingRight=3;rotatable=0;labelPosition=right;points=[];portConstraint=eastwest;strokeColor=inherit;" vertex="1" parent="kfvMcEYBfHKcjL1v_Dra-0">
          <mxGeometry y="52" width="160" height="8" as="geometry" />
        </mxCell>
        <mxCell id="kfvMcEYBfHKcjL1v_Dra-3" value="+ getInstancia(): Tablero" style="text;strokeColor=none;fillColor=none;align=left;verticalAlign=top;spacingLeft=4;spacingRight=4;overflow=hidden;rotatable=0;points=[[0,0.5],[1,0.5]];portConstraint=eastwest;whiteSpace=wrap;html=1;" vertex="1" parent="kfvMcEYBfHKcjL1v_Dra-0">
          <mxGeometry y="60" width="160" height="26" as="geometry" />
        </mxCell>
        <mxCell id="kfvMcEYBfHKcjL1v_Dra-4" value="&lt;div&gt;&lt;b&gt;&amp;lt;&amp;lt;interface&amp;gt;&amp;gt;&lt;/b&gt;&lt;/div&gt;&lt;div&gt;&lt;b&gt;FabricaComponentes&lt;/b&gt;&lt;/div&gt;" style="swimlane;fontStyle=0;childLayout=stackLayout;horizontal=1;startSize=40;fillColor=none;horizontalStack=0;resizeParent=1;resizeParentMax=0;resizeLast=0;collapsible=1;marginBottom=0;whiteSpace=wrap;html=1;" vertex="1" parent="WIyWlLk6GJQsqaUBKTNV-1">
          <mxGeometry x="1100" y="40" width="190" height="100" as="geometry" />
        </mxCell>
        <mxCell id="kfvMcEYBfHKcjL1v_Dra-5" value="&lt;div&gt;+ crearTablero(): Tablero&lt;/div&gt;&lt;div&gt;+ crearJugador(String, Color): Jugador&lt;/div&gt;" style="text;strokeColor=none;fillColor=none;align=left;verticalAlign=top;spacingLeft=4;spacingRight=4;overflow=hidden;rotatable=0;points=[[0,0.5],[1,0.5]];portConstraint=eastwest;whiteSpace=wrap;html=1;" vertex="1" parent="kfvMcEYBfHKcjL1v_Dra-4">
          <mxGeometry y="40" width="190" height="60" as="geometry" />
        </mxCell>
        <mxCell id="kfvMcEYBfHKcjL1v_Dra-8" value="&lt;b&gt;FabricaTablero&lt;/b&gt;" style="swimlane;fontStyle=0;childLayout=stackLayout;horizontal=1;startSize=30;fillColor=none;horizontalStack=0;resizeParent=1;resizeParentMax=0;resizeLast=0;collapsible=1;marginBottom=0;whiteSpace=wrap;html=1;" vertex="1" parent="WIyWlLk6GJQsqaUBKTNV-1">
          <mxGeometry x="1350" y="50" width="170" height="90" as="geometry" />
        </mxCell>
        <mxCell id="kfvMcEYBfHKcjL1v_Dra-9" value="&lt;div&gt;+ crearTablero(): Tablero&lt;/div&gt;&lt;div&gt;+ crearJugador(String, Color): Jugador&lt;/div&gt;" style="text;strokeColor=none;fillColor=none;align=left;verticalAlign=top;spacingLeft=4;spacingRight=4;overflow=hidden;rotatable=0;points=[[0,0.5],[1,0.5]];portConstraint=eastwest;whiteSpace=wrap;html=1;" vertex="1" parent="kfvMcEYBfHKcjL1v_Dra-8">
          <mxGeometry y="30" width="170" height="60" as="geometry" />
        </mxCell>
        <mxCell id="kfvMcEYBfHKcjL1v_Dra-10" value="&lt;div&gt;&lt;b&gt;&amp;lt;&amp;lt;interface&amp;gt;&amp;gt;&lt;/b&gt;&lt;/div&gt;&lt;div&gt;&lt;b&gt;ComponenteTablero&lt;/b&gt;&lt;/div&gt;" style="swimlane;fontStyle=0;childLayout=stackLayout;horizontal=1;startSize=40;fillColor=none;horizontalStack=0;resizeParent=1;resizeParentMax=0;resizeLast=0;collapsible=1;marginBottom=0;whiteSpace=wrap;html=1;" vertex="1" parent="WIyWlLk6GJQsqaUBKTNV-1">
          <mxGeometry x="60" y="370" width="220" height="170" as="geometry" />
        </mxCell>
        <mxCell id="kfvMcEYBfHKcjL1v_Dra-11" value="&lt;div&gt;+ dibujar(Graphics, int, int, int): void&lt;/div&gt;&lt;div&gt;+ esOcupado(): boolean&lt;/div&gt;&lt;div&gt;+ setOcupado(boolean): void&lt;/div&gt;&lt;div&gt;+ setJugador(Jugador): void&lt;/div&gt;&lt;div&gt;+ getJugador(): Jugador&lt;/div&gt;&lt;div&gt;+ getX(): int&lt;/div&gt;&lt;div&gt;+ getY(): int&lt;/div&gt;&lt;div&gt;+ setPosicion(int, int): void&lt;/div&gt;" style="text;strokeColor=none;fillColor=none;align=left;verticalAlign=top;spacingLeft=4;spacingRight=4;overflow=hidden;rotatable=0;points=[[0,0.5],[1,0.5]];portConstraint=eastwest;whiteSpace=wrap;html=1;" vertex="1" parent="kfvMcEYBfHKcjL1v_Dra-10">
          <mxGeometry y="40" width="220" height="130" as="geometry" />
        </mxCell>
        <mxCell id="kfvMcEYBfHKcjL1v_Dra-14" value="CasillaIndividual" style="swimlane;fontStyle=1;align=center;verticalAlign=top;childLayout=stackLayout;horizontal=1;startSize=26;horizontalStack=0;resizeParent=1;resizeParentMax=0;resizeLast=0;collapsible=1;marginBottom=0;whiteSpace=wrap;html=1;" vertex="1" parent="WIyWlLk6GJQsqaUBKTNV-1">
          <mxGeometry x="60" y="560" width="210" height="250" as="geometry" />
        </mxCell>
        <mxCell id="kfvMcEYBfHKcjL1v_Dra-15" value="&lt;div&gt;- ocupado: boolean&lt;/div&gt;&lt;div&gt;- jugador: Jugador&lt;/div&gt;&lt;div&gt;- x: int&lt;/div&gt;&lt;div&gt;- y: int&lt;/div&gt;&lt;div&gt;- colorFondo: Color&lt;/div&gt;" style="text;strokeColor=none;fillColor=none;align=left;verticalAlign=top;spacingLeft=4;spacingRight=4;overflow=hidden;rotatable=0;points=[[0,0.5],[1,0.5]];portConstraint=eastwest;whiteSpace=wrap;html=1;" vertex="1" parent="kfvMcEYBfHKcjL1v_Dra-14">
          <mxGeometry y="26" width="210" height="84" as="geometry" />
        </mxCell>
        <mxCell id="kfvMcEYBfHKcjL1v_Dra-16" value="" style="line;strokeWidth=1;fillColor=none;align=left;verticalAlign=middle;spacingTop=-1;spacingLeft=3;spacingRight=3;rotatable=0;labelPosition=right;points=[];portConstraint=eastwest;strokeColor=inherit;" vertex="1" parent="kfvMcEYBfHKcjL1v_Dra-14">
          <mxGeometry y="110" width="210" height="8" as="geometry" />
        </mxCell>
        <mxCell id="kfvMcEYBfHKcjL1v_Dra-17" value="&lt;div&gt;+ dibujar(Graphics, int, int, int): void&lt;/div&gt;&lt;div&gt;+ esOcupado(): boolean&lt;/div&gt;&lt;div&gt;+ setOcupado(boolean): void&lt;/div&gt;&lt;div&gt;+ setJugador(Jugador): void&lt;/div&gt;&lt;div&gt;+ getJugador(): Jugador&lt;/div&gt;&lt;div&gt;+ getX(): int&lt;/div&gt;&lt;div&gt;+ getY(): int&lt;/div&gt;&lt;div&gt;+ setPosicion(int, int): void&lt;/div&gt;" style="text;strokeColor=none;fillColor=none;align=left;verticalAlign=top;spacingLeft=4;spacingRight=4;overflow=hidden;rotatable=0;points=[[0,0.5],[1,0.5]];portConstraint=eastwest;whiteSpace=wrap;html=1;" vertex="1" parent="kfvMcEYBfHKcjL1v_Dra-14">
          <mxGeometry y="118" width="210" height="132" as="geometry" />
        </mxCell>
        <mxCell id="kfvMcEYBfHKcjL1v_Dra-18" value="FachadaValidacion" style="swimlane;fontStyle=1;align=center;verticalAlign=top;childLayout=stackLayout;horizontal=1;startSize=26;horizontalStack=0;resizeParent=1;resizeParentMax=0;resizeLast=0;collapsible=1;marginBottom=0;whiteSpace=wrap;html=1;" vertex="1" parent="WIyWlLk6GJQsqaUBKTNV-1">
          <mxGeometry x="60" y="840" width="210" height="120" as="geometry" />
        </mxCell>
        <mxCell id="kfvMcEYBfHKcjL1v_Dra-19" value="- estrategia: EstrategiaMovimiento" style="text;strokeColor=none;fillColor=none;align=left;verticalAlign=top;spacingLeft=4;spacingRight=4;overflow=hidden;rotatable=0;points=[[0,0.5],[1,0.5]];portConstraint=eastwest;whiteSpace=wrap;html=1;" vertex="1" parent="kfvMcEYBfHKcjL1v_Dra-18">
          <mxGeometry y="26" width="210" height="26" as="geometry" />
        </mxCell>
        <mxCell id="kfvMcEYBfHKcjL1v_Dra-20" value="" style="line;strokeWidth=1;fillColor=none;align=left;verticalAlign=middle;spacingTop=-1;spacingLeft=3;spacingRight=3;rotatable=0;labelPosition=right;points=[];portConstraint=eastwest;strokeColor=inherit;" vertex="1" parent="kfvMcEYBfHKcjL1v_Dra-18">
          <mxGeometry y="52" width="210" height="8" as="geometry" />
        </mxCell>
        <mxCell id="kfvMcEYBfHKcjL1v_Dra-21" value="+ validarMovimiento(Tablero, ComponenteTablero, ComponenteTablero): boolean" style="text;strokeColor=none;fillColor=none;align=left;verticalAlign=top;spacingLeft=4;spacingRight=4;overflow=hidden;rotatable=0;points=[[0,0.5],[1,0.5]];portConstraint=eastwest;whiteSpace=wrap;html=1;" vertex="1" parent="kfvMcEYBfHKcjL1v_Dra-18">
          <mxGeometry y="60" width="210" height="60" as="geometry" />
        </mxCell>
        <mxCell id="kfvMcEYBfHKcjL1v_Dra-22" value="&lt;b&gt;MovimientoEstandar&lt;/b&gt;" style="swimlane;fontStyle=0;childLayout=stackLayout;horizontal=1;startSize=26;fillColor=none;horizontalStack=0;resizeParent=1;resizeParentMax=0;resizeLast=0;collapsible=1;marginBottom=0;whiteSpace=wrap;html=1;" vertex="1" parent="WIyWlLk6GJQsqaUBKTNV-1">
          <mxGeometry x="300" y="26" width="290" height="100" as="geometry" />
        </mxCell>
        <mxCell id="kfvMcEYBfHKcjL1v_Dra-23" value="&lt;div&gt;+ validarMovimiento(Tablero, ComponenteTablero, ComponenteTablero): boolean&lt;/div&gt;&lt;div&gt;+ calcularMovimientosPosibles(Tablero, ComponenteTablero): List&amp;lt;Point&amp;gt;&lt;/div&gt;" style="text;strokeColor=none;fillColor=none;align=left;verticalAlign=top;spacingLeft=4;spacingRight=4;overflow=hidden;rotatable=0;points=[[0,0.5],[1,0.5]];portConstraint=eastwest;whiteSpace=wrap;html=1;" vertex="1" parent="kfvMcEYBfHKcjL1v_Dra-22">
          <mxGeometry y="26" width="290" height="74" as="geometry" />
        </mxCell>
        <mxCell id="kfvMcEYBfHKcjL1v_Dra-26" value="TableroHexagonal" style="swimlane;fontStyle=1;align=center;verticalAlign=top;childLayout=stackLayout;horizontal=1;startSize=26;horizontalStack=0;resizeParent=1;resizeParentMax=0;resizeLast=0;collapsible=1;marginBottom=0;whiteSpace=wrap;html=1;" vertex="1" parent="WIyWlLk6GJQsqaUBKTNV-1">
          <mxGeometry x="300" y="150" width="270" height="260" as="geometry" />
        </mxCell>
        <mxCell id="kfvMcEYBfHKcjL1v_Dra-27" value="&lt;div&gt;- casillas: ComponenteTablero[][]&lt;/div&gt;&lt;div&gt;- todasCasillas: List&amp;lt;ComponenteTablero&amp;gt;&lt;/div&gt;&lt;div&gt;- jugadores: List&amp;lt;Jugador&amp;gt;&lt;/div&gt;&lt;div&gt;- jugadorActualIndex: int&lt;/div&gt;&lt;div&gt;- estrategiaJugadores: EstrategiaJugadores&lt;/div&gt;" style="text;strokeColor=none;fillColor=none;align=left;verticalAlign=top;spacingLeft=4;spacingRight=4;overflow=hidden;rotatable=0;points=[[0,0.5],[1,0.5]];portConstraint=eastwest;whiteSpace=wrap;html=1;" vertex="1" parent="kfvMcEYBfHKcjL1v_Dra-26">
          <mxGeometry y="26" width="270" height="84" as="geometry" />
        </mxCell>
        <mxCell id="kfvMcEYBfHKcjL1v_Dra-28" value="" style="line;strokeWidth=1;fillColor=none;align=left;verticalAlign=middle;spacingTop=-1;spacingLeft=3;spacingRight=3;rotatable=0;labelPosition=right;points=[];portConstraint=eastwest;strokeColor=inherit;" vertex="1" parent="kfvMcEYBfHKcjL1v_Dra-26">
          <mxGeometry y="110" width="270" height="8" as="geometry" />
        </mxCell>
        <mxCell id="kfvMcEYBfHKcjL1v_Dra-29" value="&lt;div&gt;+ inicializarTablero(): void&lt;/div&gt;&lt;div&gt;+ esCasillaValida(int, int): boolean&lt;/div&gt;&lt;div&gt;+ getCasilla(int, int): ComponenteTablero&lt;/div&gt;&lt;div&gt;+ setCasilla(int, int, ComponenteTablero): void&lt;/div&gt;&lt;div&gt;+ getCasillas(): List&amp;lt;ComponenteTablero&amp;gt;&lt;/div&gt;&lt;div&gt;+ getJugadorActual(): Jugador&lt;/div&gt;&lt;div&gt;+ cambiarTurno(): void&lt;/div&gt;&lt;div&gt;+ verificarVictoria(Jugador): boolean&lt;/div&gt;&lt;div&gt;+ getTamaño(): int&lt;/div&gt;" style="text;strokeColor=none;fillColor=none;align=left;verticalAlign=top;spacingLeft=4;spacingRight=4;overflow=hidden;rotatable=0;points=[[0,0.5],[1,0.5]];portConstraint=eastwest;whiteSpace=wrap;html=1;" vertex="1" parent="kfvMcEYBfHKcjL1v_Dra-26">
          <mxGeometry y="118" width="270" height="142" as="geometry" />
        </mxCell>
        <mxCell id="kfvMcEYBfHKcjL1v_Dra-34" value="PanelTablero" style="swimlane;fontStyle=1;align=center;verticalAlign=top;childLayout=stackLayout;horizontal=1;startSize=26;horizontalStack=0;resizeParent=1;resizeParentMax=0;resizeLast=0;collapsible=1;marginBottom=0;whiteSpace=wrap;html=1;" vertex="1" parent="WIyWlLk6GJQsqaUBKTNV-1">
          <mxGeometry x="300" y="440" width="240" height="240" as="geometry" />
        </mxCell>
        <mxCell id="kfvMcEYBfHKcjL1v_Dra-35" value="&lt;div&gt;- tablero: Tablero&lt;/div&gt;&lt;div&gt;- tamañoCasilla: int&lt;/div&gt;&lt;div&gt;- filaSeleccionada: int&lt;/div&gt;&lt;div&gt;- columnaSeleccionada: int&lt;/div&gt;&lt;div&gt;- estrategiaActual: EstrategiaMovimiento&lt;/div&gt;&lt;div&gt;- estadoLabel: JLabel&lt;/div&gt;&lt;div&gt;- movimientosPosibles: List&amp;lt;Point&amp;gt;&lt;/div&gt;&lt;div&gt;- enSaltoMultiple: boolean&lt;/div&gt;" style="text;strokeColor=none;fillColor=none;align=left;verticalAlign=top;spacingLeft=4;spacingRight=4;overflow=hidden;rotatable=0;points=[[0,0.5],[1,0.5]];portConstraint=eastwest;whiteSpace=wrap;html=1;" vertex="1" parent="kfvMcEYBfHKcjL1v_Dra-34">
          <mxGeometry y="26" width="240" height="124" as="geometry" />
        </mxCell>
        <mxCell id="kfvMcEYBfHKcjL1v_Dra-36" value="" style="line;strokeWidth=1;fillColor=none;align=left;verticalAlign=middle;spacingTop=-1;spacingLeft=3;spacingRight=3;rotatable=0;labelPosition=right;points=[];portConstraint=eastwest;strokeColor=inherit;" vertex="1" parent="kfvMcEYBfHKcjL1v_Dra-34">
          <mxGeometry y="150" width="240" height="8" as="geometry" />
        </mxCell>
        <mxCell id="kfvMcEYBfHKcjL1v_Dra-37" value="&lt;div&gt;+ seleccionarFicha(int, int): void&lt;/div&gt;&lt;div&gt;+ moverFicha(int, int, int, int): void&lt;/div&gt;&lt;div&gt;+ actualizarEstado(): void&lt;/div&gt;&lt;div&gt;+ getEstadoLabel(): JLabel&lt;/div&gt;&lt;div&gt;+ paintComponent(Graphics): void&lt;/div&gt;" style="text;strokeColor=none;fillColor=none;align=left;verticalAlign=top;spacingLeft=4;spacingRight=4;overflow=hidden;rotatable=0;points=[[0,0.5],[1,0.5]];portConstraint=eastwest;whiteSpace=wrap;html=1;" vertex="1" parent="kfvMcEYBfHKcjL1v_Dra-34">
          <mxGeometry y="158" width="240" height="82" as="geometry" />
        </mxCell>
        <mxCell id="kfvMcEYBfHKcjL1v_Dra-38" value="VentanaPrincipal" style="swimlane;fontStyle=1;align=center;verticalAlign=top;childLayout=stackLayout;horizontal=1;startSize=26;horizontalStack=0;resizeParent=1;resizeParentMax=0;resizeLast=0;collapsible=1;marginBottom=0;whiteSpace=wrap;html=1;" vertex="1" parent="WIyWlLk6GJQsqaUBKTNV-1">
          <mxGeometry x="300" y="700" width="160" height="86" as="geometry" />
        </mxCell>
        <mxCell id="kfvMcEYBfHKcjL1v_Dra-39" value="- tablero: Tablero" style="text;strokeColor=none;fillColor=none;align=left;verticalAlign=top;spacingLeft=4;spacingRight=4;overflow=hidden;rotatable=0;points=[[0,0.5],[1,0.5]];portConstraint=eastwest;whiteSpace=wrap;html=1;" vertex="1" parent="kfvMcEYBfHKcjL1v_Dra-38">
          <mxGeometry y="26" width="160" height="26" as="geometry" />
        </mxCell>
        <mxCell id="kfvMcEYBfHKcjL1v_Dra-40" value="" style="line;strokeWidth=1;fillColor=none;align=left;verticalAlign=middle;spacingTop=-1;spacingLeft=3;spacingRight=3;rotatable=0;labelPosition=right;points=[];portConstraint=eastwest;strokeColor=inherit;" vertex="1" parent="kfvMcEYBfHKcjL1v_Dra-38">
          <mxGeometry y="52" width="160" height="8" as="geometry" />
        </mxCell>
        <mxCell id="kfvMcEYBfHKcjL1v_Dra-41" value="+ mostrar(): void" style="text;strokeColor=none;fillColor=none;align=left;verticalAlign=top;spacingLeft=4;spacingRight=4;overflow=hidden;rotatable=0;points=[[0,0.5],[1,0.5]];portConstraint=eastwest;whiteSpace=wrap;html=1;" vertex="1" parent="kfvMcEYBfHKcjL1v_Dra-38">
          <mxGeometry y="60" width="160" height="26" as="geometry" />
        </mxCell>
        <mxCell id="kfvMcEYBfHKcjL1v_Dra-42" value="Estrategia2Jugadores" style="swimlane;fontStyle=1;align=center;verticalAlign=top;childLayout=stackLayout;horizontal=1;startSize=26;horizontalStack=0;resizeParent=1;resizeParentMax=0;resizeLast=0;collapsible=1;marginBottom=0;whiteSpace=wrap;html=1;" vertex="1" parent="WIyWlLk6GJQsqaUBKTNV-1">
          <mxGeometry x="300" y="820" width="210" height="120" as="geometry" />
        </mxCell>
        <mxCell id="kfvMcEYBfHKcjL1v_Dra-43" value="- jugadores: List&amp;lt;Jugador&amp;gt;" style="text;strokeColor=none;fillColor=none;align=left;verticalAlign=top;spacingLeft=4;spacingRight=4;overflow=hidden;rotatable=0;points=[[0,0.5],[1,0.5]];portConstraint=eastwest;whiteSpace=wrap;html=1;" vertex="1" parent="kfvMcEYBfHKcjL1v_Dra-42">
          <mxGeometry y="26" width="210" height="26" as="geometry" />
        </mxCell>
        <mxCell id="kfvMcEYBfHKcjL1v_Dra-44" value="" style="line;strokeWidth=1;fillColor=none;align=left;verticalAlign=middle;spacingTop=-1;spacingLeft=3;spacingRight=3;rotatable=0;labelPosition=right;points=[];portConstraint=eastwest;strokeColor=inherit;" vertex="1" parent="kfvMcEYBfHKcjL1v_Dra-42">
          <mxGeometry y="52" width="210" height="8" as="geometry" />
        </mxCell>
        <mxCell id="kfvMcEYBfHKcjL1v_Dra-45" value="&lt;div&gt;+ crearJugadores(): List&amp;lt;Jugador&amp;gt;&lt;/div&gt;&lt;div&gt;+ inicializarFichas(Tablero): void&lt;/div&gt;&lt;div&gt;+ getNumeroJugadores(): int&lt;/div&gt;" style="text;strokeColor=none;fillColor=none;align=left;verticalAlign=top;spacingLeft=4;spacingRight=4;overflow=hidden;rotatable=0;points=[[0,0.5],[1,0.5]];portConstraint=eastwest;whiteSpace=wrap;html=1;" vertex="1" parent="kfvMcEYBfHKcjL1v_Dra-42">
          <mxGeometry y="60" width="210" height="60" as="geometry" />
        </mxCell>
        <mxCell id="kfvMcEYBfHKcjL1v_Dra-46" value="&lt;b&gt;EstadoJugando&lt;/b&gt;" style="swimlane;fontStyle=0;childLayout=stackLayout;horizontal=1;startSize=26;fillColor=none;horizontalStack=0;resizeParent=1;resizeParentMax=0;resizeLast=0;collapsible=1;marginBottom=0;whiteSpace=wrap;html=1;" vertex="1" parent="WIyWlLk6GJQsqaUBKTNV-1">
          <mxGeometry x="300" y="960" width="140" height="52" as="geometry" />
        </mxCell>
        <mxCell id="kfvMcEYBfHKcjL1v_Dra-47" value="+ manejar(): void" style="text;strokeColor=none;fillColor=none;align=left;verticalAlign=top;spacingLeft=4;spacingRight=4;overflow=hidden;rotatable=0;points=[[0,0.5],[1,0.5]];portConstraint=eastwest;whiteSpace=wrap;html=1;" vertex="1" parent="kfvMcEYBfHKcjL1v_Dra-46">
          <mxGeometry y="26" width="140" height="26" as="geometry" />
        </mxCell>
        <mxCell id="kfvMcEYBfHKcjL1v_Dra-50" value="&lt;b&gt;Main&lt;/b&gt;" style="swimlane;fontStyle=0;childLayout=stackLayout;horizontal=1;startSize=26;fillColor=none;horizontalStack=0;resizeParent=1;resizeParentMax=0;resizeLast=0;collapsible=1;marginBottom=0;whiteSpace=wrap;html=1;" vertex="1" parent="WIyWlLk6GJQsqaUBKTNV-1">
          <mxGeometry x="300" y="1030" width="140" height="52" as="geometry" />
        </mxCell>
        <mxCell id="kfvMcEYBfHKcjL1v_Dra-51" value="+ main(String[]): void" style="text;strokeColor=none;fillColor=none;align=left;verticalAlign=top;spacingLeft=4;spacingRight=4;overflow=hidden;rotatable=0;points=[[0,0.5],[1,0.5]];portConstraint=eastwest;whiteSpace=wrap;html=1;" vertex="1" parent="kfvMcEYBfHKcjL1v_Dra-50">
          <mxGeometry y="26" width="140" height="26" as="geometry" />
        </mxCell>
        <mxCell id="kfvMcEYBfHKcjL1v_Dra-54" value="ZonaTriangular" style="swimlane;fontStyle=1;align=center;verticalAlign=top;childLayout=stackLayout;horizontal=1;startSize=26;horizontalStack=0;resizeParent=1;resizeParentMax=0;resizeLast=0;collapsible=1;marginBottom=0;whiteSpace=wrap;html=1;" vertex="1" parent="WIyWlLk6GJQsqaUBKTNV-1">
          <mxGeometry x="640" y="26" width="220" height="250" as="geometry" />
        </mxCell>
        <mxCell id="kfvMcEYBfHKcjL1v_Dra-55" value="&lt;div&gt;- componentes: List&amp;lt;ComponenteTablero&amp;gt;&lt;/div&gt;&lt;div&gt;- x: int&lt;/div&gt;&lt;div&gt;- y: int&lt;/div&gt;" style="text;strokeColor=none;fillColor=none;align=left;verticalAlign=top;spacingLeft=4;spacingRight=4;overflow=hidden;rotatable=0;points=[[0,0.5],[1,0.5]];portConstraint=eastwest;whiteSpace=wrap;html=1;" vertex="1" parent="kfvMcEYBfHKcjL1v_Dra-54">
          <mxGeometry y="26" width="220" height="74" as="geometry" />
        </mxCell>
        <mxCell id="kfvMcEYBfHKcjL1v_Dra-56" value="" style="line;strokeWidth=1;fillColor=none;align=left;verticalAlign=middle;spacingTop=-1;spacingLeft=3;spacingRight=3;rotatable=0;labelPosition=right;points=[];portConstraint=eastwest;strokeColor=inherit;" vertex="1" parent="kfvMcEYBfHKcjL1v_Dra-54">
          <mxGeometry y="100" width="220" height="8" as="geometry" />
        </mxCell>
        <mxCell id="kfvMcEYBfHKcjL1v_Dra-57" value="&lt;div&gt;+ agregar(ComponenteTablero): void&lt;/div&gt;&lt;div&gt;+ dibujar(Graphics, int, int, int): void&lt;/div&gt;&lt;div&gt;+ esOcupado(): boolean&lt;/div&gt;&lt;div&gt;+ setOcupado(boolean): void&lt;/div&gt;&lt;div&gt;+ setJugador(Jugador): void&lt;/div&gt;&lt;div&gt;+ getJugador(): Jugador&lt;/div&gt;&lt;div&gt;+ getX(): int&lt;/div&gt;&lt;div&gt;+ getY(): int&lt;/div&gt;&lt;div&gt;+ setPosicion(int, int): void&lt;/div&gt;" style="text;strokeColor=none;fillColor=none;align=left;verticalAlign=top;spacingLeft=4;spacingRight=4;overflow=hidden;rotatable=0;points=[[0,0.5],[1,0.5]];portConstraint=eastwest;whiteSpace=wrap;html=1;" vertex="1" parent="kfvMcEYBfHKcjL1v_Dra-54">
          <mxGeometry y="108" width="220" height="142" as="geometry" />
        </mxCell>
        <mxCell id="kfvMcEYBfHKcjL1v_Dra-58" value="&lt;b&gt;JugadorHumano&lt;/b&gt;" style="swimlane;fontStyle=0;childLayout=stackLayout;horizontal=1;startSize=26;fillColor=none;horizontalStack=0;resizeParent=1;resizeParentMax=0;resizeLast=0;collapsible=1;marginBottom=0;whiteSpace=wrap;html=1;" vertex="1" parent="WIyWlLk6GJQsqaUBKTNV-1">
          <mxGeometry x="640" y="306" width="190" height="52" as="geometry" />
        </mxCell>
        <mxCell id="kfvMcEYBfHKcjL1v_Dra-59" value="+JugadorHumano(String, Color)" style="text;strokeColor=none;fillColor=none;align=left;verticalAlign=top;spacingLeft=4;spacingRight=4;overflow=hidden;rotatable=0;points=[[0,0.5],[1,0.5]];portConstraint=eastwest;whiteSpace=wrap;html=1;" vertex="1" parent="kfvMcEYBfHKcjL1v_Dra-58">
          <mxGeometry y="26" width="190" height="26" as="geometry" />
        </mxCell>
        <mxCell id="kfvMcEYBfHKcjL1v_Dra-62" value="&lt;b&gt;Tablero&lt;/b&gt;" style="swimlane;fontStyle=0;childLayout=stackLayout;horizontal=1;startSize=26;fillColor=none;horizontalStack=0;resizeParent=1;resizeParentMax=0;resizeLast=0;collapsible=1;marginBottom=0;whiteSpace=wrap;html=1;" vertex="1" parent="WIyWlLk6GJQsqaUBKTNV-1">
          <mxGeometry x="640" y="380" width="300" height="200" as="geometry" />
        </mxCell>
        <mxCell id="kfvMcEYBfHKcjL1v_Dra-63" value="&lt;div&gt;+ generarInterfazTablero(JPanel): void&lt;/div&gt;&lt;div&gt;+ getCasilla(int, int): ComponenteTablero&lt;/div&gt;&lt;div&gt;+ setCasilla(int, int, ComponenteTablero): void&lt;/div&gt;&lt;div&gt;+ getCasillas(): List&amp;lt;ComponenteTablero&amp;gt;&lt;/div&gt;&lt;div&gt;+ inicializarTablero(): void&lt;/div&gt;&lt;div&gt;+ getJugadorActual(): Jugador&lt;/div&gt;&lt;div&gt;+ cambiarTurno(): void&lt;/div&gt;&lt;div&gt;+ verificarVictoria(Jugador): boolean&lt;/div&gt;&lt;div&gt;+ getTamaño(): int&lt;/div&gt;&lt;div&gt;+ esCasillaValida(int, int): boolean&lt;/div&gt;&lt;div&gt;+ setEstrategiaJugadores(EstrategiaJugadores): void&lt;/div&gt;" style="text;strokeColor=none;fillColor=none;align=left;verticalAlign=top;spacingLeft=4;spacingRight=4;overflow=hidden;rotatable=0;points=[[0,0.5],[1,0.5]];portConstraint=eastwest;whiteSpace=wrap;html=1;" vertex="1" parent="kfvMcEYBfHKcjL1v_Dra-62">
          <mxGeometry y="26" width="300" height="174" as="geometry" />
        </mxCell>
        <mxCell id="kfvMcEYBfHKcjL1v_Dra-66" value="&lt;div&gt;&lt;b&gt;&amp;lt;&amp;lt;interface&amp;gt;&amp;gt;&lt;/b&gt;&lt;/div&gt;&lt;div&gt;&lt;b&gt;EstrategiaJugadores&lt;/b&gt;&lt;/div&gt;" style="swimlane;fontStyle=0;childLayout=stackLayout;horizontal=1;startSize=40;fillColor=none;horizontalStack=0;resizeParent=1;resizeParentMax=0;resizeLast=0;collapsible=1;marginBottom=0;whiteSpace=wrap;html=1;" vertex="1" parent="WIyWlLk6GJQsqaUBKTNV-1">
          <mxGeometry x="1100" y="160" width="230" height="100" as="geometry" />
        </mxCell>
        <mxCell id="kfvMcEYBfHKcjL1v_Dra-67" value="&lt;div&gt;+ crearJugadores(): List&amp;lt;Jugador&amp;gt;&lt;/div&gt;&lt;div&gt;+ inicializarFichas(Tablero): void&lt;/div&gt;&lt;div&gt;+ getNumeroJugadores(): int&lt;/div&gt;" style="text;strokeColor=none;fillColor=none;align=left;verticalAlign=top;spacingLeft=4;spacingRight=4;overflow=hidden;rotatable=0;points=[[0,0.5],[1,0.5]];portConstraint=eastwest;whiteSpace=wrap;html=1;" vertex="1" parent="kfvMcEYBfHKcjL1v_Dra-66">
          <mxGeometry y="40" width="230" height="60" as="geometry" />
        </mxCell>
        <mxCell id="kfvMcEYBfHKcjL1v_Dra-70" value="&lt;b&gt;FabricaHumano&lt;/b&gt;" style="swimlane;fontStyle=0;childLayout=stackLayout;horizontal=1;startSize=26;fillColor=none;horizontalStack=0;resizeParent=1;resizeParentMax=0;resizeLast=0;collapsible=1;marginBottom=0;whiteSpace=wrap;html=1;" vertex="1" parent="WIyWlLk6GJQsqaUBKTNV-1">
          <mxGeometry x="1350" y="160" width="230" height="52" as="geometry" />
        </mxCell>
        <mxCell id="kfvMcEYBfHKcjL1v_Dra-71" value="+ crearJugador(String, Color): Jugador" style="text;strokeColor=none;fillColor=none;align=left;verticalAlign=top;spacingLeft=4;spacingRight=4;overflow=hidden;rotatable=0;points=[[0,0.5],[1,0.5]];portConstraint=eastwest;whiteSpace=wrap;html=1;" vertex="1" parent="kfvMcEYBfHKcjL1v_Dra-70">
          <mxGeometry y="26" width="230" height="26" as="geometry" />
        </mxCell>
      </root>
    </mxGraphModel>
  </diagram>
</mxfile>
